<svg xmlns="http://www.w3.org/2000/svg" xmlns:xlink="http://www.w3.org/1999/xlink" width="61" height="61" version="1.1" viewBox="0 0 61 61"><title>img-multidir</title><desc>Created with Sketch.</desc><g id="Page-1" fill="none" fill-rule="evenodd" stroke="none" stroke-width="1"><g id="img-multidir" stroke="#000"><rect id="Rectangle-8" width="16" height="16" x="0" y="0" fill="#FFF"/><rect id="Rectangle-10" width="16" height="16" x="15" y="0" fill="#777"/><rect id="Rectangle-11" width="16" height="16" x="30" y="0" fill="#777"/><rect id="Rectangle-12" width="16" height="16" x="45" y="0" fill="#777"/><rect id="Rectangle-18" width="16" height="16" x="15" y="15" fill="#FFF"/><rect id="Rectangle-17" width="16" height="16" x="30" y="15" fill="#FFF"/><rect id="Rectangle-16" width="16" height="16" x="45" y="15" fill="#FFF"/><rect id="Rectangle-21" width="16" height="16" x="15" y="30" fill="#FFF"/><rect id="Rectangle-20" width="16" height="16" x="30" y="30" fill="#FFF"/><rect id="Rectangle-19" width="16" height="16" x="45" y="30" fill="#FFF"/><rect id="Rectangle-24" width="16" height="16" x="15" y="45" fill="#FFF"/><rect id="Rectangle-23" width="16" height="16" x="30" y="45" fill="#FFF"/><rect id="Rectangle-22" width="16" height="16" x="45" y="45" fill="#FFF"/><rect id="Rectangle-13" width="16" height="16" x="0" y="15" fill="#777"/><rect id="Rectangle-14" width="16" height="16" x="0" y="30" fill="#777"/><rect id="Rectangle-15" width="16" height="16" x="0" y="45" fill="#777"/></g></g></svg>